<svg version="1.1" xmlns="http://www.w3.org/2000/svg" xmlns:xlink="http://www.w3.org/1999/xlink"
	 viewBox="0 0 29 35">
<g>
	<path fill="#5E6261" d="M23.1,14.4c-1.1,0-2.1,0.3-3,0.9l-1.6-2.1l0.2-0.6c0.3-0.1,0.6-0.2,0.9-0.4c1.2-0.8,1.2-1.3-0.1-1.2
		s-0.2,0-1.6,0.1c-1.7-0.1-3,0.4-2.1,0.8c0.4,0.2,1.1,0.5,1.7,0.6l-0.1,0.3h-7.3c0-0.1,0.1-0.2,0.1-0.4l-0.1,0
		c0.2-0.7,0.4-1.2,0.4-1.2l0.1-0.2l-0.3-0.5l0.3-0.3l1.4-0.1c0.2,0,0.5-0.2,0.4-0.5c0-0.2-0.2-0.5-0.5-0.4l-1.7,0.1l-1.1,1l0.5,0.9
		c-0.1,0.2-0.2,0.5-0.3,1l-0.1,0c-0.3,0.9-0.7,2.1-1,3.3c-0.7-0.3-1.5-0.5-2.3-0.5c-3,0-5.5,2.5-5.5,5.5c0,3,2.5,5.5,5.5,5.5
		s5.5-2.5,5.5-5.5c0-1.8-0.9-3.3-2.1-4.3c0-0.2,0.1-0.3,0.1-0.5l5.4,5.5c0,0.1,0,0.1,0,0.2c0,0.4,0.3,0.8,0.7,0.9l0.3,1.4
		c-0.1,0.1-0.2,0.2-0.2,0.3c0,0.3,0.3,0.5,0.8,0.5c0.4,0,0.8-0.2,0.8-0.5c0-0.2-0.2-0.4-0.5-0.4L16.3,22c0.2-0.1,0.3-0.3,0.3-0.5
		l1.2-0.2c0.6,2.3,2.7,4,5.3,4c3,0,5.5-2.5,5.5-5.5C28.6,16.9,26.2,14.4,23.1,14.4z M10.3,20.3c0,2.4-2,4.3-4.3,4.3s-4.3-2-4.3-4.3
		s2-4.3,4.3-4.3c0.7,0,1.4,0.2,2,0.5c-0.5,1.3-1.5,2.5-2,3.1c-0.4,0.1-0.6,0.4-0.6,0.8C5.2,20.7,5.6,21,6,21s0.8-0.3,0.8-0.8v0
		c0.5-0.6,1.5-1.8,2.1-3.1C9.7,17.9,10.3,19.1,10.3,20.3z M18.8,19.9c0-1.2,0.5-2.2,1.2-3l1.9,2.5L18.8,20
		C18.8,20,18.8,19.9,18.8,19.9z M9.9,14h7.4l-1.4,4.9c-0.1-0.2-0.4-0.3-0.7-0.3c-0.4,0-0.6,0.2-0.7,0.4l-4.6-4.7
		C9.8,14.2,9.8,14,9.9,14z M16.5,20.4l1.7-5.8l1.1,1.4c-1,1-1.6,2.4-1.6,3.9c0,0.1,0,0.2,0,0.3L16.5,20.4z M23.1,24.2
		c-2,0-3.6-1.3-4.1-3.1l4.9-0.9l-3.1-4c0.7-0.4,1.4-0.6,2.3-0.6c2.4,0,4.3,2,4.3,4.3C27.5,22.3,25.5,24.2,23.1,24.2z"/>
</g>
</svg>
