<svg version="1.1" id="Layer_1" xmlns="http://www.w3.org/2000/svg" xmlns:xlink="http://www.w3.org/1999/xlink" viewBox="0 0 48 48">
<path fill="#484B4E" d="M36,46H12C5.4,46,0,40.6,0,34V18C0,11.4,5.4,6,12,6h24c6.6,0,12,5.4,12,12v16C48,40.6,42.6,46,36,46z M12,8
	C6.5,8,2,12.5,2,18v16c0,5.5,4.5,10,10,10h24c5.5,0,10-4.5,10-10V18c0-5.5-4.5-10-10-10H12z"/>
<path fill="#484B4E" d="M29,41c-7.7,0-14-6.3-14-14s6.3-14,14-14s14,6.3,14,14S36.7,41,29,41z M29,15c-6.6,0-12,5.4-12,12
	c0,6.6,5.4,12,12,12c6.6,0,12-5.4,12-12C41,20.4,35.6,15,29,15z"/>
<path fill="#484B4E" d="M29,36.4c-5.2,0-9.4-4.2-9.4-9.4s4.2-9.4,9.4-9.4s9.4,4.2,9.4,9.4S34.2,36.4,29,36.4z M29,19.1
	c-4.4,0-7.9,3.6-7.9,7.9s3.6,7.9,7.9,7.9s7.9-3.6,7.9-7.9S33.4,19.1,29,19.1z"/>
<path fill="#484B4E" d="M21,7.2H9.5V1.8H21V7.2z M11,5.8h8.5V3.2H11V5.8z"/>
<circle fill="#484B4E" cx="10.2" cy="13" r="2"/>
</svg>
