<?xml version="1.0" encoding="utf-8"?>
<!-- Generator: Adobe Illustrator 18.1.0, SVG Export Plug-In . SVG Version: 6.00 Build 0)  -->
<svg version="1.1" id="Layer_1" xmlns="http://www.w3.org/2000/svg" xmlns:xlink="http://www.w3.org/1999/xlink" x="0px" y="0px"
	 viewBox="0 0 100 100" enable-background="new 0 0 100 100" xml:space="preserve">
<path id="trash-can-2-icon" fill="#494B4E" d="M43.3,41.3c0-1.2-1-2.2-2.2-2.2c-1.2,0-2.2,1-2.2,2.2v26.5c0,1.2,1,2.2,2.2,2.2
	c1.2,0,2.2-1,2.2-2.2V41.3z M52.2,41.3c0-1.2-1-2.2-2.2-2.2s-2.2,1-2.2,2.2v26.5c0,1.2,1,2.2,2.2,2.2s2.2-1,2.2-2.2V41.3z M61,41.3
	c0-1.2-1-2.2-2.2-2.2s-2.2,1-2.2,2.2v26.5c0,1.2,1,2.2,2.2,2.2s2.2-1,2.2-2.2V41.3z M66.8,74.9H33.2V34.3h-5.1V80h43.8V34.3h-5.1
	V74.9L66.8,74.9z M60.7,24.1c-2.3,0-4.1-1.8-4.1-4.1H43.4c0,2.3-1.8,4.1-4.1,4.1H25.5v5.8h49.1v-5.8H60.7z"/>
</svg>
