<svg version="1.1" id="Layer_1" xmlns="http://www.w3.org/2000/svg" xmlns:xlink="http://www.w3.org/1999/xlink" x="0px" y="0px"
	 viewBox="0 0 100 100" enable-background="new 0 0 100 100" xml:space="preserve">
<path fill="none" stroke="#484B4E" stroke-width="6" stroke-miterlimit="10" d="M27.5,27.5c0,0,0,5,0,8.8c0,31.2,45.7,0.7,45.7,26.7
	c0,7,0,9.5,0,9.5"/>
<g>
	<path fill="#FFFFFF" d="M27.5,34.5c-3.9,0-7-3.1-7-7s3.1-7,7-7s7,3.1,7,7S31.4,34.5,27.5,34.5z"/>
	<path fill="#484B4E" d="M27.5,22.5c2.8,0,5,2.2,5,5s-2.2,5-5,5s-5-2.2-5-5S24.7,22.5,27.5,22.5 M27.5,18.5c-5,0-9,4-9,9s4,9,9,9
		s9-4,9-9S32.5,18.5,27.5,18.5L27.5,18.5z"/>
</g>
<g>
	<path fill="#FFFFFF" d="M73.2,79.5c-3.9,0-7-3.1-7-7s3.1-7,7-7s7,3.1,7,7S77,79.5,73.2,79.5z"/>
	<path fill="#484B4E" d="M73.2,67.5c2.8,0,5,2.2,5,5s-2.2,5-5,5s-5-2.2-5-5S70.4,67.5,73.2,67.5 M73.2,63.5c-5,0-9,4-9,9s4,9,9,9
		s9-4,9-9S78.1,63.5,73.2,63.5L73.2,63.5z"/>
</g>
</svg>
