<svg version="1.1" xmlns="http://www.w3.org/2000/svg" xmlns:xlink="http://www.w3.org/1999/xlink" viewBox="0 0 200 200">
<g>
	<path fill="#474b4e" d="M186.6,174.3H13.4c-1.9,0-3.6-1.3-4-3.2L1.1,134C1,133.7,1,133.4,1,133.1v-99c0-18.2,14.8-33,33-33h132
		c18.2,0,33,14.8,33,33v98.7c0,0.3,0,0.6-0.1,0.9l-8.2,37.4C190.2,173,188.6,174.3,186.6,174.3z M16.7,166.1h166.6l7.4-33.7V34.1
		c0-13.6-11.1-24.8-24.8-24.8H34C20.4,9.3,9.2,20.4,9.2,34.1v98.5L16.7,166.1z"/>
	<path fill="#474b4e" d="M153.6,42.3H46.4c-2.3,0-4.1-1.9-4.1-4.1V21.7c0-2.3,1.8-4.1,4.1-4.1h107.2c2.3,0,4.1,1.9,4.1,4.1v16.5
		C157.8,40.5,155.9,42.3,153.6,42.3z M50.5,34.1h99v-8.2h-99V34.1z"/>
	<path fill="#474b4e" d="M178.4,133.1H21.6c-2.3,0-4.1-1.9-4.1-4.1V54.7c0-2.3,1.8-4.1,4.1-4.1h156.8c2.3,0,4.1,1.9,4.1,4.1V129
		C182.5,131.2,180.6,133.1,178.4,133.1z M25.8,124.8h148.5v-66H25.8V124.8z"/>
	<path fill="#474b4e" d="M95.9,129c-2.3,0-4.1-1.9-4.1-4.1v-66c0-2.3,1.8-4.1,4.1-4.1s4.1,1.9,4.1,4.1v66
		C100,127.1,98.2,129,95.9,129z"/>
	<path fill="#474b4e" d="M42.2,162c-6.8,0-12.4-5.6-12.4-12.4c0-6.8,5.6-12.4,12.4-12.4s12.4,5.6,12.4,12.4
		C54.6,156.4,49.1,162,42.2,162z M42.2,145.5c-2.3,0-4.1,1.9-4.1,4.1c0,2.3,1.8,4.1,4.1,4.1s4.1-1.9,4.1-4.1
		C46.4,147.3,44.5,145.5,42.2,145.5z"/>
	<path fill="#474b4e" d="M157.8,162c-6.8,0-12.4-5.6-12.4-12.4c0-6.8,5.6-12.4,12.4-12.4s12.4,5.6,12.4,12.4
		C170.1,156.4,164.6,162,157.8,162z M157.8,145.5c-2.3,0-4.1,1.9-4.1,4.1c0,2.3,1.9,4.1,4.1,4.1s4.1-1.9,4.1-4.1
		C161.9,147.3,160,145.5,157.8,145.5z"/>
	<path fill="#474b4e" d="M124.8,157.8H75.2c-2.3,0-4.1-1.9-4.1-4.1c0-2.3,1.8-4.1,4.1-4.1h49.5c2.3,0,4.1,1.9,4.1,4.1
		C128.9,156,127,157.8,124.8,157.8z"/>
	<path fill="#474b4e" d="M166,198.9c-9.1,0-16.5-7.3-16.5-16.3v-8.2h8.2v8.2c0,4.5,3.6,8.1,8.2,8.1c4.5,0,8.2-3.9,8.2-8.4v-7.9h8.2
		v7.9C182.5,191.4,175.1,198.9,166,198.9z"/>
	<path fill="#474b4e" d="M34,198.9c-9.1,0-16.5-7.3-16.5-16.3v-8.2h8.2v8.2c0,4.5,3.6,8.1,8.2,8.1c4.5,0,8.2-3.9,8.2-8.4v-7.9h8.2
		v7.9C50.5,191.4,43.1,198.9,34,198.9z"/>
	<path fill="#474b4e" d="M34,79.1c-1.1,0-2.1-0.4-2.9-1.2c-1.6-1.6-1.6-4.2,0-5.8l8.1-8.1c1.6-1.6,4.2-1.6,5.8,0
		c1.6,1.6,1.6,4.2,0,5.8l-8.1,8.1C36.1,78.7,35.1,79.1,34,79.1z"/>
	<path fill="#474b4e" d="M34,96c-1,0-2.1-0.4-2.9-1.2c-1.6-1.6-1.6-4.2,0-5.8L55.8,64c1.6-1.6,4.2-1.6,5.8,0c1.6,1.6,1.6,4.2,0,5.8
		L36.9,94.7C36.1,95.6,35.1,96,34,96z"/>
	<path fill="#474b4e" d="M109.3,79.1c-1,0-2.1-0.4-2.9-1.1c-1.6-1.6-1.7-4.2-0.1-5.8l7.7-8.1c1.6-1.6,4.2-1.7,5.8-0.1
		c1.6,1.6,1.7,4.2,0.1,5.8l-7.7,8.1C111.5,78.7,110.4,79.1,109.3,79.1z"/>
</g>
<metadata>Created by iconsmind.com from the Noun Project</metadata>
</svg>
