<svg version="1.1" xmlns="http://www.w3.org/2000/svg" xmlns:xlink="http://www.w3.org/1999/xlink" viewBox="0 0 48 48">
<g>
	<path fill="#474b4e" d="M8.6,37C3.9,37,0,33.1,0,28.3s3.9-8.6,8.6-8.6s8.6,3.9,8.6,8.6S13.4,37,8.6,37z M8.6,21.6
		c-3.7,0-6.7,3-6.7,6.7c0,3.7,3,6.7,6.7,6.7s6.7-3,6.7-6.7C15.3,24.6,12.3,21.6,8.6,21.6z"/>
	<path fill="#474b4e" d="M39.4,37c-4.8,0-8.6-3.9-8.6-8.6s3.9-8.6,8.6-8.6s8.6,3.9,8.6,8.6S44.1,37,39.4,37z M39.4,21.6
		c-3.7,0-6.7,3-6.7,6.7c0,3.7,3,6.7,6.7,6.7c3.7,0,6.7-3,6.7-6.7C46.1,24.6,43.1,21.6,39.4,21.6z"/>
	<path fill="#474B4E" d="M8.6,30.2c-0.4,0-0.7-0.2-0.9-0.6c-0.2-0.4-0.1-0.8,0.2-1.1l11.5-11.5c0.1-0.1,0.3-0.2,0.5-0.3l13.4-2.9
		c0.4-0.1,0.8,0.1,1,0.4c0.2,0.4,0.2,0.8-0.1,1.1L22.8,28.9c-0.2,0.2-0.4,0.3-0.7,0.3L8.6,30.2C8.7,30.2,8.7,30.2,8.6,30.2z
		 M20.6,18.6l-9.5,9.5l10.5-0.8l9.4-11L20.6,18.6z"/>
	<path fill="#474B4E" d="M39.4,29.3c-0.4,0-0.8-0.2-0.9-0.6L31.7,7.3c-0.2-0.5,0.1-1,0.6-1.2c0.5-0.2,1,0.1,1.2,0.6L40.3,28
		c0.2,0.5-0.1,1-0.6,1.2C39.6,29.3,39.5,29.3,39.4,29.3z"/>
	<path fill="#474B4E" d="M22.1,29.3c-0.5,0-0.9-0.3-0.9-0.8L17.2,13c-0.1-0.5,0.3-1,0.8-1.1c0.5-0.1,1,0.3,1.1,0.8l3.9,15.4
		c0.1,0.5-0.3,1-0.8,1.1C22.2,29.3,22.1,29.3,22.1,29.3z"/>
	<path fill="#474B4E" d="M20.1,12.9h-5.8c-0.5,0-1-0.4-1-1s0.4-1,1-1h5.8c0.5,0,1,0.4,1,1C21,12.4,20.6,12.9,20.1,12.9z"/>
	<path fill="#474B4E" d="M37.6,8h-4.9c-0.5,0-1-0.4-1-1s0.4-1,1-1h4.9c0.5,0,1,0.4,1,1S38.1,8,37.6,8z"/>
</g>
</svg>
