<svg version="1.1" xmlns="http://www.w3.org/2000/svg" xmlns:xlink="http://www.w3.org/1999/xlink" viewBox="0 0 120 200">
<polygon fill="#EF483A" points="0,200 0,0 120,0 120,120 "/>
<path fill="#FFFFFF" d="M52.7,61.1C51.4,54.4,50.4,49,49.8,45c-0.7-4-1.1-6.9-1.3-8.8c-0.2-1.9-0.3-3.6-0.3-5c0-3.4,1.1-6.1,3.2-8.1
	c2.1-2.1,5-3.1,8.6-3.1c3.6,0,6.4,1,8.6,3.1c2.1,2.1,3.2,4.8,3.2,8.1c0,1.4-0.1,3.1-0.3,5c-0.2,1.9-0.6,4.9-1.3,8.8
	c-0.7,4-1.6,9.3-2.9,16.1c-1.3,6.7-2.7,15.6-4.9,26.6h-4.7C55.4,76.7,54,67.8,52.7,61.1z M51.9,100.8c2.2-2.2,5-3.4,8.1-3.4
	c3.2,0,5.9,1.1,8.1,3.4s3.4,5,3.4,8.1c0,3.2-1.1,5.8-3.4,7.9c-2.2,2.1-5,3.2-8.1,3.2c-3.2,0-5.9-1.1-8.1-3.2
	c-2.2-2.1-3.4-4.7-3.4-7.9C48.5,105.7,49.6,103,51.9,100.8z"/>
</svg>
