<svg version="1.1" id="Layer_1" xmlns="http://www.w3.org/2000/svg" xmlns:xlink="http://www.w3.org/1999/xlink" x="0px" y="0px"
	 viewBox="0 0 100 100" enable-background="new 0 0 100 100" xml:space="preserve">
<g>
	<g>
		<path fill="#484B4E" d="M32.1,76.7L30,74.6l3.3-3.3c1-1,1.5-2,1.5-2.9c0-2-2.5-4.3-4.9-6.5c-3.1-2.8-6.3-5.8-6.4-9.6
			c0-2.2,1-4.4,3.1-6.5l3.1-3.1l2.1,2.1l-3.1,3.1c-1.5,1.5-2.3,3-2.2,4.3c0.1,2.5,2.8,5,5.4,7.5c2.9,2.6,5.8,5.3,5.9,8.6
			c0,1.8-0.8,3.5-2.4,5.1L32.1,76.7z"/>
		<g>
			<circle fill="#FFFFFF" cx="30.8" cy="43.7" r="4.5"/>
			<path fill="#484B4E" d="M32.6,41.9c1,1,1,2.6,0,3.5c-1,1-2.6,1-3.5,0s-1-2.6,0-3.5S31.6,41,32.6,41.9 M34,40.5
				c-1.8-1.8-4.6-1.8-6.3,0c-1.8,1.8-1.8,4.6,0,6.3c1.8,1.8,4.6,1.8,6.3,0C35.8,45.1,35.8,42.3,34,40.5L34,40.5z"/>
		</g>
		<g>
			<circle fill="#FFFFFF" cx="31.1" cy="75.7" r="4.5"/>
			<path fill="#484B4E" d="M32.8,73.9c1,1,1,2.6,0,3.5c-1,1-2.6,1-3.5,0c-1-1-1-2.6,0-3.5C30.3,72.9,31.9,72.9,32.8,73.9 M34.2,72.5
				c-1.8-1.8-4.6-1.8-6.3,0c-1.8,1.8-1.8,4.6,0,6.3c1.8,1.8,4.6,1.8,6.3,0S36,74.2,34.2,72.5L34.2,72.5z"/>
		</g>
	</g>
	<g>

			<rect x="32.4" y="60.6" transform="matrix(0.7071 0.7071 -0.7071 0.7071 56.4809 -5.0644)" fill="#FFFFFF" width="4" height="10"/>
		<g>

				<rect x="51.2" y="24" transform="matrix(0.7071 0.7071 -0.7071 0.7071 47.4636 -26.8341)" fill="#484B4E" width="9.9" height="39.7"/>

				<rect x="68.7" y="22.3" transform="matrix(0.7071 0.7071 -0.7071 0.7071 40.1915 -44.3904)" fill="#484B4E" width="9.9" height="7.9"/>
			<polygon fill="#484B4E" points="34.4,65.6 37.9,55.1 44.9,62.1 			"/>
		</g>
	</g>
</g>
</svg>
