<svg version="1.1" id="Layer_1" xmlns="http://www.w3.org/2000/svg" xmlns:xlink="http://www.w3.org/1999/xlink" viewBox="0 0 48 48">
<g>
	<g>
		<circle fill="#FFFFFF" cx="19" cy="11.8" r="2"/>
		<path fill="#484B4E" d="M19,14.8c-1.7,0-3-1.3-3-3s1.3-3,3-3s3,1.3,3,3S20.7,14.8,19,14.8z M19,10.8c-0.6,0-1,0.4-1,1s0.4,1,1,1
			s1-0.4,1-1S19.6,10.8,19,10.8z"/>
	</g>
	<g>
		<path fill="#FFFFFF" d="M16.2,16.6c0,0,1.6-0.5,2.8-0.5c1.3,0,2.8,0.5,2.8,0.5"/>
		<path fill="#484B4E" d="M16.2,17.6c-0.4,0-0.8-0.3-1-0.7c-0.2-0.5,0.1-1.1,0.7-1.3c0.1,0,1.8-0.5,3.1-0.5c1.5,0,3.1,0.5,3.1,0.6
			c0.5,0.2,0.8,0.7,0.6,1.3c-0.2,0.5-0.7,0.8-1.3,0.6c0,0-1.4-0.4-2.5-0.4c-1.1,0-2.5,0.4-2.5,0.5C16.4,17.6,16.3,17.6,16.2,17.6z"
			/>
	</g>
</g>
<g>
	<g>
		<circle fill="#FFFFFF" cx="28.5" cy="11.8" r="2"/>
		<path fill="#484B4E" d="M28.5,14.8c-1.7,0-3-1.3-3-3s1.3-3,3-3s3,1.3,3,3S30.2,14.8,28.5,14.8z M28.5,10.8c-0.6,0-1,0.4-1,1
			s0.4,1,1,1s1-0.4,1-1S29.1,10.8,28.5,10.8z"/>
	</g>
	<g>
		<path fill="#FFFFFF" d="M25.7,16.6c0,0,1.6-0.5,2.8-0.5c1.3,0,2.8,0.5,2.8,0.5"/>
		<path fill="#484B4E" d="M25.7,17.6c-0.4,0-0.8-0.3-1-0.7c-0.2-0.5,0.1-1.1,0.7-1.3c0.1,0,1.8-0.5,3.1-0.5c1.5,0,3.1,0.5,3.1,0.6
			c0.5,0.2,0.8,0.7,0.6,1.3c-0.2,0.5-0.7,0.8-1.3,0.6c0,0-1.4-0.4-2.5-0.4c-0.9,0-2.1,0.3-2.5,0.5C25.9,17.6,25.8,17.6,25.7,17.6z"
			/>
	</g>
</g>
<path fill="#484B4E" d="M43.5,41.4H5c-1,0-1.9-0.4-2.6-1.2c-0.7-0.7-1-1.7-0.8-2.7l1-7.8c0-0.2,0.1-0.5,0.3-0.6l1.9-1.6L6.5,7.1
	c0.3-3.4,3.1-6,6.6-6h22.3c3.5,0,6.3,2.6,6.6,6l1.8,20.4l1.9,1.7c0.2,0.2,0.3,0.4,0.3,0.6l1,7.7c0.1,1-0.2,2-0.8,2.7
	C45.4,40.9,44.5,41.4,43.5,41.4z M4.4,30.3l-0.9,7.5c-0.1,0.4,0.1,0.9,0.4,1.2c0.3,0.3,0.7,0.5,1.1,0.5h38.5c0.4,0,0.8-0.2,1.1-0.5
	c0.3-0.3,0.4-0.8,0.4-1.2l-0.9-7.3l-1.9-1.7c-0.2-0.2-0.3-0.4-0.3-0.6L40,7.3C39.8,4.8,37.8,3,35.4,3H13.1c-2.5,0-4.5,1.8-4.7,4.3
	L6.6,28c0,0.3-0.1,0.5-0.3,0.6C6.3,28.7,4.4,30.3,4.4,30.3z"/>
<path fill="#484B4E" d="M24.2,28.3c-5.6,0-8.5-0.9-13.1-3.8c-0.3-0.2-0.5-0.5-0.4-0.9c0.5-6.8,0.7-10.4,1.2-17.8
	c0-0.5,0.4-0.9,1-0.9c4.5,0.1,6.7,0.2,11.3,0.2c4.6,0,6.8,0,11.3-0.2c0.5,0,0.9,0.4,1,0.9c0.5,7.4,0.8,10.9,1.2,17.8
	c0,0.4-0.1,0.7-0.4,0.9C32.7,27.5,29.8,28.3,24.2,28.3z M12.7,23.2c4,2.5,6.6,3.2,11.6,3.2c5,0,7.5-0.7,11.6-3.2
	c-0.4-6.2-0.7-9.7-1.1-16.3C30.8,7,28.4,7,24.2,7C20,7,17.7,7,13.8,6.9C13.3,13.5,13.1,17,12.7,23.2z"/>
<path fill="#484B4E" d="M10.6,35.2c-1.6,0-2.9-1.3-2.9-2.9c0-1.6,1.3-2.9,2.9-2.9s2.9,1.3,2.9,2.9C13.5,33.9,12.2,35.2,10.6,35.2z
	 M10.6,31.4c-0.5,0-1,0.4-1,1c0,0.5,0.4,1,1,1s1-0.4,1-1C11.5,31.8,11.1,31.4,10.6,31.4z"/>
<path fill="#484B4E" d="M37.4,35.2c-1.6,0-2.9-1.3-2.9-2.9c0-1.6,1.3-2.9,2.9-2.9c1.6,0,2.9,1.3,2.9,2.9
	C40.3,33.9,39,35.2,37.4,35.2z M37.4,31.4c-0.5,0-1,0.4-1,1c0,0.5,0.4,1,1,1c0.5,0,1-0.4,1-1C38.4,31.8,38,31.4,37.4,31.4z"/>
<path fill="#484B4E" d="M16.6,31.8h15.3v1.9H16.6C16.6,33.7,16.6,31.8,16.6,31.8z"/>
<path fill="#484B4E" d="M16.6,35.6h15.3v1.9H16.6C16.6,37.5,16.6,35.6,16.6,35.6z"/>
<path fill="#484B4E" d="M8.9,47.1c-2.1,0-3.8-1.7-3.8-3.8v-1.9H7v1.9c0,1.1,0.8,1.9,1.9,1.9c1,0,1.9-0.9,1.9-2v-1.8h1.9v1.8
	C12.7,45.3,11,47.1,8.9,47.1z"/>
<path fill="#484B4E" d="M39.6,47.1c-2.1,0-3.8-1.7-3.8-3.8v-1.9h1.9v1.9c0,1.1,0.8,1.9,1.9,1.9c1,0,1.9-0.9,1.9-2v-1.8h1.9v1.8
	C43.4,45.3,41.7,47.1,39.6,47.1z"/>
<g>
	<g>
		<circle fill="#FFFFFF" cx="17" cy="17.6" r="2"/>
		<path fill="#484B4E" d="M17,20.6c-1.7,0-3-1.3-3-3s1.3-3,3-3s3,1.3,3,3S18.7,20.6,17,20.6z M17,16.6c-0.6,0-1,0.4-1,1s0.4,1,1,1
			s1-0.4,1-1S17.6,16.6,17,16.6z"/>
	</g>
	<g>
		<path fill="#FFFFFF" d="M14.2,22.4c0,0,1.6-0.5,2.8-0.5c1.3,0,2.8,0.5,2.8,0.5"/>
		<path fill="#484B4E" d="M14.2,23.4c-0.4,0-0.8-0.3-1-0.7c-0.2-0.5,0.1-1.1,0.7-1.3c0.1,0,1.8-0.5,3.1-0.5c1.5,0,3.1,0.5,3.1,0.6
			c0.5,0.2,0.8,0.7,0.6,1.3c-0.2,0.5-0.7,0.8-1.3,0.6c0,0-1.4-0.4-2.5-0.4c-1.1,0-2.5,0.4-2.5,0.5C14.4,23.4,14.3,23.4,14.2,23.4z"
			/>
	</g>
</g>
<g>
	<g>
		<circle fill="#FFFFFF" cx="30.5" cy="16" r="3"/>
		<path fill="#484B4E" d="M30.5,20c-2.2,0-4-1.8-4-4s1.8-4,4-4s4,1.8,4,4S32.7,20,30.5,20z M30.5,14c-1.1,0-2,0.9-2,2s0.9,2,2,2
			s2-0.9,2-2S31.6,14,30.5,14z"/>
	</g>
	<g>
		<path fill="#FFFFFF" d="M26.5,22.4c0,0,2.3-0.7,4-0.7c1.9,0,4,0.7,4,0.7"/>
		<path fill="#484B4E" d="M26.5,23.4c-0.4,0-0.8-0.3-1-0.7c-0.2-0.5,0.1-1.1,0.7-1.3c0.1,0,2.4-0.8,4.3-0.8c2,0,4.2,0.7,4.3,0.8
			c0.5,0.2,0.8,0.7,0.6,1.3c-0.2,0.5-0.7,0.8-1.3,0.6c0,0-2-0.7-3.7-0.7c-1.6,0-3.7,0.7-3.7,0.7C26.7,23.4,26.6,23.4,26.5,23.4z"/>
	</g>
</g>
</svg>
