<svg version="1.1" id="Layer_1" xmlns="http://www.w3.org/2000/svg" xmlns:xlink="http://www.w3.org/1999/xlink" x="0px" y="0px"
	 viewBox="0 0 100 100" enable-background="new 0 0 100 100" xml:space="preserve">
<g>
	<polygon fill="#EF483A" points="32,80 32,20 68,20 68,56 	"/>
	<path fill="#FFFFFF" d="M47.8,38.3c-0.4-2-0.7-3.6-0.9-4.8c-0.2-1.2-0.3-2.1-0.4-2.7c-0.1-0.6-0.1-1.1-0.1-1.5c0-1,0.3-1.8,1-2.4
		c0.6-0.6,1.5-0.9,2.6-0.9c1.1,0,1.9,0.3,2.6,0.9c0.6,0.6,1,1.4,1,2.4c0,0.4,0,0.9-0.1,1.5c-0.1,0.6-0.2,1.5-0.4,2.7
		c-0.2,1.2-0.5,2.8-0.9,4.8c-0.4,2-0.8,4.7-1.5,8h-1.4C48.6,43,48.2,40.3,47.8,38.3z M47.6,50.2c0.7-0.7,1.5-1,2.4-1
		c1,0,1.8,0.3,2.4,1s1,1.5,1,2.4c0,1-0.3,1.7-1,2.4C51.8,55.7,51,56,50,56c-1,0-1.8-0.3-2.4-0.9c-0.7-0.6-1-1.4-1-2.4
		C46.5,51.7,46.9,50.9,47.6,50.2z"/>
</g>
</svg>
