<svg version="1.1" id="Layer_1" xmlns="http://www.w3.org/2000/svg" xmlns:xlink="http://www.w3.org/1999/xlink" x="0px" y="0px"
	 viewBox="0 0 48 48" enable-background="new 0 0 48 48" xml:space="preserve">
<g>
	<path fill="#F04A3A" d="M20.6,19.9c-0.6-3.2-1.1-5.6-1.4-7.5c-0.3-1.8-0.5-3.3-0.6-4.3c-0.2-0.9-0.2-1.7-0.2-2.3
		c0-1.5,0.5-2.9,1.5-3.8C20.8,1,22.3,0.5,24,0.5s3,0.5,4.1,1.4c0.9,0.9,1.5,2.2,1.5,3.8c0,0.6,0,1.4-0.2,2.3s-0.3,2.3-0.6,4.3
		c-0.3,1.8-0.8,4.4-1.4,7.5s-1.2,7.3-2.3,12.5h-2C21.9,27.3,21.2,23,20.6,19.9z M20.3,38.5c1.1-1.1,2.3-1.5,3.8-1.5
		c1.5,0,2.9,0.5,3.8,1.5c0.9,1,1.5,2.3,1.5,3.8c0,1.5-0.5,2.7-1.5,3.8c-1.1,0.9-2.3,1.4-3.8,1.4c-1.5,0-2.9-0.5-3.8-1.4
		c-1.1-0.9-1.5-2.2-1.5-3.8C18.6,40.9,19.2,39.6,20.3,38.5z"/>
</g>
</svg>
