
<svg xmlns="http://www.w3.org/2000/svg" xmlns:xlink="http://www.w3.org/1999/xlink" xmlns:dc="http://purl.org/dc/elements/1.1/" xmlns:cc="http://creativecommons.org/ns#" xmlns:rdf="http://www.w3.org/1999/02/22-rdf-syntax-ns#" version="1.1" x="0px" y="0px" viewBox="0 0 32 32" enable-background="new 0 0 32 32" xml:space="preserve">
<title property="dc:title">to flag</title><desc property="dc:description">An icon for "flag" from the Isometric series on to [icon]. Downloaded from http://www.toicon.com/icons/isometric_flag by 69.181.180.38 on 2015-03-25. Licensed CC-BY, see http://toicon.com/license/ for details.</desc><g id="LABELS">
</g>
<g id="DESIGNS">
	<g>
		<g>
			<path fill="#7BD6C4" d="M8.963,21.736l-1.262-1.262l-0.013,0.008L6,19.593l0.011,8.49l0.031,0     c-0.201,1.229,3.141,1.219,2.911-0.004l0.018,0L8.963,21.736z"/>
			<polygon fill="#569080" points="7.701,20.474 8.963,21.736 8.979,19.802    "/>
		</g>
		<g>
			<path fill="#BE1E2D" d="M21.162,9.357l4.155-7.167l-1.688-0.889l-8.96,5.469l-2-0.771L6,10v9.593l1.688,0.889L12,18.122L14,19     l11.625-7.098L21.162,9.357z"/>
			<polygon fill="#F05A28" points="12,8.314 7.688,10.592 7.688,20.481 12,18.122    "/>
		</g>
		<g>
			<polygon fill="#F05A28" points="21.162,9.357 25.317,2.19 14,9.121 14,19 25.625,11.902    "/>
		</g>
	</g>
</g>
<metadata><work rdf:about=""><format>image/svg+xml</format><type rdf:resource="http://purl.org/dc/dcmitype/StillImage"/><license rdf:resource="http://creativecommons.org/licenses/by/4.0/"/><attributionname>Jo Szczepanska</attributionname><attributionurl>http://www.toicon.com/icons/isometric_flag</attributionurl></work></metadata></svg>
