<?xml version="1.0" encoding="UTF-8"?>
<!-- Generator: Adobe Illustrator 18.0.0, SVG Export Plug-In . SVG Version: 6.00 Build 0)  -->
<!DOCTYPE svg PUBLIC "-//W3C//DTD SVG 1.1//EN" "http://www.w3.org/Graphics/SVG/1.1/DTD/svg11.dtd">
<svg xmlns="http://www.w3.org/2000/svg" xmlns:xlink="http://www.w3.org/1999/xlink" xmlns:dc="http://purl.org/dc/elements/1.1/" xmlns:cc="http://creativecommons.org/ns#" xmlns:rdf="http://www.w3.org/1999/02/22-rdf-syntax-ns#" version="1.1" x="0px" y="0px" viewBox="0 0 32 32" enable-background="new 0 0 32 32" xml:space="preserve">
<title property="dc:title">to locate</title><desc property="dc:description">An icon for "locate" from the Isometric series on to [icon]. Downloaded from http://www.toicon.com/icons/isometric_locate by 69.181.180.38 on 2015-03-25. Licensed CC-BY, see http://toicon.com/license/ for details.</desc><g id="LABELS">
</g>
<g id="DESIGNS">
	<g>
		<path fill="#BE1E2D" d="M20.879,8.629C20.4,6.715,19.513,5.4,18.434,4.77c-0.292-0.17-3.179-1.841-3.689-1.901    c-4.123-0.486-7.83,7.514-6.248,13.833c1.065,4.258,4.566,9.801,4.566,9.801L15.552,28C15.552,28,21.944,12.887,20.879,8.629z"/>
		<path fill="#F05A28" d="M20.879,8.629C21.944,12.887,15.552,28,15.552,28s-3.5-5.543-4.566-9.801s0.285-9.851,3.017-12.494    S19.813,4.372,20.879,8.629z"/>
		<path fill="#F05A28" d="M20.879,8.629C21.944,12.887,15.552,28,15.552,28s-3.5-5.543-4.566-9.801s0.285-9.851,3.017-12.494    S19.813,4.372,20.879,8.629z"/>
		<path fill="#BE1E2D" d="M19.052,9.29c-0.274-1.095-0.887-1.706-1.625-1.816c0.314,0.312,0.57,0.752,0.719,1.347    c0.5,1.999-0.302,4.788-1.793,6.229c-0.674,0.652-1.369,0.898-1.979,0.807c0.74,0.734,1.839,0.674,2.885-0.338    C18.75,14.078,19.552,11.289,19.052,9.29z"/>
	</g>
</g>
<metadata><work rdf:about=""><format>image/svg+xml</format><type rdf:resource="http://purl.org/dc/dcmitype/StillImage"/><license rdf:resource="http://creativecommons.org/licenses/by/4.0/"/><attributionname>Jo Szczepanska</attributionname><attributionurl>http://www.toicon.com/icons/isometric_locate</attributionurl></work></metadata></svg>
