<?xml version="1.0" encoding="UTF-8"?>
<!-- Generator: Adobe Illustrator 18.0.0, SVG Export Plug-In . SVG Version: 6.00 Build 0)  -->
<!DOCTYPE svg PUBLIC "-//W3C//DTD SVG 1.1//EN" "http://www.w3.org/Graphics/SVG/1.1/DTD/svg11.dtd">
<svg xmlns="http://www.w3.org/2000/svg" xmlns:xlink="http://www.w3.org/1999/xlink" xmlns:dc="http://purl.org/dc/elements/1.1/" xmlns:cc="http://creativecommons.org/ns#" xmlns:rdf="http://www.w3.org/1999/02/22-rdf-syntax-ns#" version="1.1" x="0px" y="0px" viewBox="0 0 32 32" enable-background="new 0 0 32 32" xml:space="preserve">
<title property="dc:title">to finish</title><desc property="dc:description">An icon for "finish" from the Pictogram series on to [icon]. Downloaded from http://www.toicon.com/icons/pictogram_finish by 69.181.180.38 on 2015-03-25. Licensed CC-BY, see http://toicon.com/license/ for details.</desc><g id="LABELS">
</g>
<g id="DESIGNS">
	<g>
		<g>
			<circle fill="#01A59C" cx="16" cy="16" r="16"/>
		</g>
		<path fill="#0C6667" d="M20.466,12.094l1.495,0.937l1.492-2.381l-1.621-1.016c-0.034,0.134-0.08,0.266-0.153,0.391L20.466,12.094z    "/>
		
			<rect x="22.493" y="11.181" transform="matrix(-0.531 0.8474 -0.8474 -0.531 47.2538 -0.9805)" fill="#F4D6B0" width="2.81" height="2.81"/>
		
			<rect x="24.874" y="12.674" transform="matrix(-0.531 0.8474 -0.8474 -0.531 52.1638 -0.7137)" fill="#0C6667" width="2.81" height="2.81"/>
		
			<rect x="27.255" y="14.166" transform="matrix(0.531 -0.8474 0.8474 0.531 0.2473 31.5884)" fill="#F4D6B0" width="2.81" height="2.81"/>
		<polygon fill="#F4D6B0" points="20.466,12.094 19.045,14.519 20.469,15.412 21.962,13.031   "/>
		
			<rect x="21.001" y="13.563" transform="matrix(0.531 -0.8474 0.8474 0.531 -2.1749 26.0057)" fill="#0C6667" width="2.81" height="2.81"/>
		
			<rect x="23.382" y="15.055" transform="matrix(-0.8474 -0.531 0.531 -0.8474 37.0503 43.5697)" fill="#F4D6B0" width="2.81" height="2.81"/>
		
			<rect x="25.763" y="16.547" transform="matrix(-0.8474 -0.531 0.531 -0.8474 40.657 47.5906)" fill="#0C6667" width="2.81" height="2.81"/>
		
			<rect x="19.509" y="15.944" transform="matrix(0.531 -0.8474 0.8474 0.531 -4.8925 25.8577)" fill="#F4D6B0" width="2.81" height="2.81"/>
		
			<rect x="21.89" y="17.436" transform="matrix(0.531 -0.8474 0.8474 0.531 -5.0402 28.5752)" fill="#0C6667" width="2.81" height="2.81"/>
		
			<rect x="24.271" y="18.928" transform="matrix(-0.8474 -0.531 0.531 -0.8474 36.636 51.1971)" fill="#F4D6B0" width="2.81" height="2.81"/>
		<path fill="#0C6667" d="M11.534,12.094l-1.495,0.937L8.546,10.65l1.621-1.016c0.034,0.134,0.08,0.266,0.153,0.391L11.534,12.094z"/>
		
			<rect x="6.697" y="11.181" transform="matrix(0.531 0.8474 -0.8474 0.531 14.4649 -0.9622)" fill="#F4D6B0" width="2.81" height="2.81"/>
		
			<rect x="4.316" y="12.674" transform="matrix(0.531 0.8474 -0.8474 0.531 14.6126 1.7553)" fill="#0C6667" width="2.81" height="2.81"/>
		
			<rect x="1.934" y="14.166" transform="matrix(-0.531 -0.8474 0.8474 -0.531 -8.0814 26.6689)" fill="#F4D6B0" width="2.81" height="2.81"/>
		<polygon fill="#F4D6B0" points="11.534,12.094 12.955,14.519 11.531,15.412 10.038,13.031   "/>
		
			<rect x="8.189" y="13.563" transform="matrix(-0.531 -0.8474 0.8474 -0.531 2.0054 31.0452)" fill="#0C6667" width="2.81" height="2.81"/>
		
			<rect x="5.808" y="15.055" transform="matrix(0.8474 -0.531 0.531 0.8474 -7.6395 6.3426)" fill="#F4D6B0" width="2.81" height="2.81"/>
		
			<rect x="3.427" y="16.547" transform="matrix(0.8474 -0.531 0.531 0.8474 -8.7952 5.3058)" fill="#0C6667" width="2.81" height="2.81"/>
		
			<rect x="9.681" y="15.944" transform="matrix(-0.531 -0.8474 0.8474 -0.531 2.2725 35.9552)" fill="#F4D6B0" width="2.81" height="2.81"/>
		
			<rect x="7.3" y="17.436" transform="matrix(-0.531 -0.8474 0.8474 -0.531 -2.6375 36.2222)" fill="#0C6667" width="2.81" height="2.81"/>
		
			<rect x="4.919" y="18.928" transform="matrix(0.8474 -0.531 0.531 0.8474 -9.8319 6.4616)" fill="#F4D6B0" width="2.81" height="2.81"/>
		<path fill="#0C6667" d="M17.987,17.173l0.99,0.62l1.492-2.381l-1.413-0.885c-0.423,0.728-0.864,1.485-1.306,2.243    C17.83,16.905,17.908,17.038,17.987,17.173z"/>
		<path fill="#0C6667" d="M11.531,15.412l1.492,2.381l0.99-0.62c0.079-0.135,0.157-0.268,0.236-0.403    c-0.442-0.758-0.882-1.515-1.306-2.243L11.531,15.412z"/>
		<path fill="#E54D2E" d="M19.299,8.231c-0.207,0.217-3.148,5.292-3.299,5.551c-0.152-0.259-3.093-5.334-3.299-5.551    c-1.211-1.273-3.243,0.321-2.359,1.828c0.637,1.086,2.28,3.915,3.908,6.71c-1.263,2.155-2.464,4.204-3.115,5.315    c-0.974,1.661,1.605,3.193,2.588,1.517c0.114-0.147,1.063-1.755,2.278-3.832c1.215,2.077,2.164,3.684,2.278,3.832    c0.983,1.677,3.562,0.144,2.588-1.517c-0.651-1.111-1.852-3.159-3.115-5.314c1.628-2.794,3.271-5.624,3.908-6.71    C22.542,8.552,20.511,6.958,19.299,8.231z"/>
	</g>
</g>
<metadata><work rdf:about=""><format>image/svg+xml</format><type rdf:resource="http://purl.org/dc/dcmitype/StillImage"/><license rdf:resource="http://creativecommons.org/licenses/by/4.0/"/><attributionname>Jo Szczepanska</attributionname><attributionurl>http://www.toicon.com/icons/pictogram_finish</attributionurl></work></metadata></svg>
