<svg version="1.1" xmlns="http://www.w3.org/2000/svg" xmlns:xlink="http://www.w3.org/1999/xlink" viewBox="0 0 530.1 48">
<path fill="#EF483A" d="M333.7,19.9c-0.6-3.1-1.1-5.5-1.4-7.4c-0.3-1.8-0.5-3.2-0.6-4.2c-0.2-0.9-0.2-1.7-0.2-2.3
	c0-1.5,0.5-2.8,1.5-3.7c0.9-0.9,2.3-1.4,4-1.4s2.9,0.5,4,1.4c0.9,0.9,1.5,2.2,1.5,3.7c0,0.6,0,1.4-0.2,2.3c-0.2,0.9-0.3,2.3-0.6,4.2
	c-0.3,1.8-0.8,4.3-1.4,7.4c-0.6,3.1-1.2,7.2-2.3,12.3H336C334.9,27.2,334.3,23,333.7,19.9z M333.4,38.2c1.1-1.1,2.3-1.5,3.7-1.5
	c1.5,0,2.8,0.5,3.7,1.5s1.5,2.3,1.5,3.7c0,1.5-0.5,2.6-1.5,3.7c-1.1,0.9-2.3,1.4-3.7,1.4c-1.5,0-2.8-0.5-3.7-1.4
	c-1.1-0.9-1.5-2.2-1.5-3.7C331.7,40.5,332.3,39.3,333.4,38.2z"/>
<g>
	<path fill="#484B4E" d="M208,18.7v10.6h-48V18.7H208z"/>
</g>
<g>
	<path fill="#484B4E" d="M28.5,0v19.5H48v8.9H28.5V48h-9V28.5H0v-9h19.5V0H28.5z"/>
</g>
<g>
	<path fill="#484B4E" d="M528.1,8.9L513,24l15.1,15.1l-6.9,6.9l-15.1-15.1L491,46l-6.9-6.9L499.1,24L484.1,8.9L491,2l15.1,15.1
		L521.1,2L528.1,8.9z"/>
</g>
</svg>
