<svg version="1.1" xmlns="http://www.w3.org/2000/svg" xmlns:xlink="http://www.w3.org/1999/xlink" viewBox="-372.3 -0.2 826.4 48">
<g>
	<g>
		<g>
			<path fill="#484B4E" d="M262.8,44.6l-1.6-1.6l2.6-2.6c0.8-0.8,1.2-1.6,1.2-2.3c0-1.6-2-3.4-3.8-5.1c-2.4-2.2-4.9-4.5-5-7.5
				c0-1.7,0.8-3.4,2.4-5.1l2.4-2.4l1.6,1.6l-2.4,2.4c-1.2,1.2-1.8,2.4-1.7,3.4c0.1,2,2.2,3.9,4.2,5.9c2.3,2,4.5,4.2,4.6,6.7
				c0,1.4-0.6,2.7-1.9,4L262.8,44.6z"/>
			<g>
				<circle fill="#FFFFFF" cx="261.8" cy="18.8" r="3.5"/>
				<path fill="#484B4E" d="M263.1,17.5c0.8,0.8,0.8,2,0,2.7c-0.8,0.7-2,0.8-2.7,0c-0.7-0.8-0.8-2,0-2.7
					C261.2,16.7,262.4,16.7,263.1,17.5 M264.2,16.4c-1.4-1.4-3.6-1.4-4.9,0c-1.4,1.4-1.4,3.6,0,4.9c1.4,1.4,3.6,1.4,4.9,0
					C265.6,20,265.6,17.7,264.2,16.4L264.2,16.4z"/>
			</g>
			<g>
				<circle fill="#FFFFFF" cx="261.9" cy="43.9" r="3.5"/>
				<path fill="#484B4E" d="M263.3,42.4c0.8,0.8,0.8,2,0,2.7c-0.8,0.8-2,0.8-2.7,0c-0.8-0.8-0.8-2,0-2.7
					C261.3,41.7,262.6,41.7,263.3,42.4 M264.4,41.4c-1.4-1.4-3.6-1.4-4.9,0c-1.4,1.4-1.4,3.6,0,4.9c1.4,1.4,3.6,1.4,4.9,0
					C265.8,45,265.8,42.8,264.4,41.4L264.4,41.4z"/>
			</g>
		</g>
		<g>

				<rect x="262.9" y="32.1" transform="matrix(-0.7071 -0.7071 0.7071 -0.7071 426.056 248.5296)" fill="#FFFFFF" width="3.1" height="7.8"/>
			<g>

					<rect x="277.7" y="3.4" transform="matrix(-0.7071 -0.7071 0.7071 -0.7071 467.3399 231.3979)" fill="#484B4E" width="7.8" height="31.1"/>

					<rect x="291.4" y="2.1" transform="matrix(-0.7071 -0.7071 0.7071 -0.7071 500.4487 217.5954)" fill="#484B4E" width="7.8" height="6.2"/>
				<polygon fill="#484B4E" points="264.5,36 267.3,27.7 272.7,33.3 				"/>
			</g>
		</g>
	</g>
	<g>
		<path fill="#484B4E" d="M-168.5,18.6V29h-47V18.6H-168.5z"/>
	</g>
	<g>
		<path fill="#484B4E" d="M-344.4,0.3v19.1h19.1v8.7h-19.1v19.2h-8.8V28.2h-19.1v-8.8h19.1V0.3H-344.4z"/>
	</g>
	<g>
		<path fill="#494C4F" d="M140.7,40.3h-4.9v-7c0-2.1-0.5-3.5-1.4-4.4c-2.1-2-6.9-1.8-11.7-1.5c-6.2,0.3-12.8,0.6-17-3.4
			c-2.4-2.3-3.6-5.8-3.6-10.3V7.2h4.9v6.5c0,3.2,0.7,5.4,2.1,6.7c2.6,2.5,8,2.3,13.4,2.1c5.8-0.3,11.7-0.5,15.3,2.9
			c1.9,1.8,2.9,4.5,2.9,8V40.3z"/>
		<g>
			<path fill="#FFFFFF" d="M104.6,12.4c-2.9,0-5.2-2.3-5.2-5.2s2.3-5.2,5.2-5.2s5.2,2.3,5.2,5.2S107.5,12.4,104.6,12.4z"/>
			<path fill="#494C4F" d="M104.6,3.5c2,0,3.7,1.6,3.7,3.7s-1.6,3.7-3.7,3.7c-2,0-3.7-1.6-3.7-3.7S102.5,3.5,104.6,3.5 M104.6,0.5
				c-3.7,0-6.7,3-6.7,6.7s3,6.7,6.7,6.7s6.7-3,6.7-6.7S108.3,0.5,104.6,0.5L104.6,0.5z"/>
		</g>
		<g>
			<path fill="#FFFFFF" d="M138.3,45.6c-2.9,0-5.2-2.3-5.2-5.2s2.3-5.2,5.2-5.2c2.9,0,5.2,2.3,5.2,5.2S141.1,45.6,138.3,45.6z"/>
			<path fill="#494C4F" d="M138.3,36.7c2,0,3.7,1.6,3.7,3.7c0,2-1.6,3.7-3.7,3.7c-2,0-3.7-1.6-3.7-3.7
				C134.6,38.4,136.2,36.7,138.3,36.7 M138.3,33.8c-3.7,0-6.7,3-6.7,6.7s3,6.7,6.7,6.7c3.7,0,6.7-3,6.7-6.7S141.9,33.8,138.3,33.8
				L138.3,33.8z"/>
		</g>
	</g>
	<path id="trash-can-2-icon" fill="#494B4E" d="M429.6,17c0-0.9-0.8-1.7-1.7-1.7s-1.7,0.8-1.7,1.7v20.8c0,0.9,0.8,1.7,1.7,1.7
		s1.7-0.8,1.7-1.7V17z M436.6,17c0-0.9-0.8-1.7-1.7-1.7s-1.7,0.8-1.7,1.7v20.8c0,0.9,0.8,1.7,1.7,1.7s1.7-0.8,1.7-1.7V17z M443.5,17
		c0-0.9-0.8-1.7-1.7-1.7s-1.7,0.8-1.7,1.7v20.8c0,0.9,0.8,1.7,1.7,1.7s1.7-0.8,1.7-1.7V17z M448.1,43.3h-26.3V11.5h-4v35.8h34.3
		V11.5h-4L448.1,43.3L448.1,43.3z M443.3,3.5c-1.8,0-3.2-1.4-3.2-3.2h-10.4c0,1.8-1.4,3.2-3.2,3.2h-10.8V8h38.5V3.5
		C454.1,3.5,443.3,3.5,443.3,3.5z"/>
	<path fill="#EF483A" d="M-38.7,19.6c-0.6-3.2-1.1-5.7-1.5-7.7c-0.3-1.9-0.5-3.3-0.6-4.4C-41,6.6-41,5.7-41,5.1
		c0-1.6,0.5-2.9,1.6-3.9c0.9-0.9,2.4-1.5,4.2-1.5s3,0.5,4.2,1.5c0.9,0.9,1.6,2.3,1.6,3.9c0,0.6,0,1.5-0.2,2.4s-0.3,2.4-0.6,4.4
		c-0.3,1.9-0.8,4.5-1.5,7.7c-0.6,3.2-1.2,7.5-2.4,12.8h-2.1C-37.5,27.2-38.1,22.8-38.7,19.6z M-39.1,38.6c1.1-1.1,2.4-1.6,3.9-1.6
		c1.6,0,2.9,0.5,3.9,1.6c0.9,1,1.6,2.4,1.6,3.9c0,1.6-0.5,2.7-1.6,3.9c-1.1,0.9-2.4,1.5-3.9,1.5c-1.6,0-2.9-0.5-3.9-1.5
		c-1.1-0.9-1.6-2.3-1.6-3.9C-40.8,41-40.2,39.8-39.1,38.6z"/>
</g>
</svg>
